<svg xmlns="http://www.w3.org/2000/svg" viewBox="149.98 448.1 700.03 103.8"><defs/><path fill="#ffffff" transform="matrix(0.2877932134747274 0 0 0.2877932134747274 6.908405829295144 31.286675072055754)" d="M 744.40280906926 1602.94620492208 C 746.40280906926 1613.94620492208 737.10280906926 1650.84620492208 764.80280906926 1671.24620492208 C 752.20280906926 1641.14620492208 766.70280906926 1617.04620492208 779.20280906926 1607.14620492208 C 778.40280906926 1617.74620492208 783.40280906926 1636.54620492208 784.90280906926 1641.44620492208 C 789.00280906926 1654.74620492208 794.10280906926 1667.74620492208 798.60280906926 1680.84620492208 C 806.90280906926 1705.04620492208 815.50280906926 1733.74620492208 803.60280906926 1758.24620492208 C 774.70280906926 1818.04620492208 680.70280906926 1808.24620492208 666.90280906926 1742.44620492208 C 662.50280906926 1721.64620492208 664.50280906926 1695.64620492208 679.90280906926 1679.54620492208 C 680.50280906926 1678.94620492208 681.20280906926 1678.24620492208 682.10280906926 1678.44620492208 C 682.90280906926 1678.54620492208 683.40280906926 1679.34620492208 683.70280906926 1680.04620492208 C 685.90280906926 1684.04620492208 687.80280906926 1688.24620492208 691.10280906926 1691.44620492208 C 695.00280906926 1695.24620492208 700.80280906926 1697.24620492208 706.20280906926 1696.54620492208 C 698.00280906926 1632.04620492208 744.40280906926 1602.94620492208 744.40280906926 1602.94620492208 Z"/><path fill="#777777" transform="matrix(0.2877932134747274 0 0 0.2877932134747274 6.908405829295144 31.286675072055754)" d="M 738.30280906926 1779.74620492208 C 715.90280906926 1779.74620492208 690.70280906926 1767.04620492208 684.70280906926 1738.84620492208 C 682.90280906926 1730.24620492208 682.30280906926 1719.34620492208 684.50280906926 1709.54620492208 C 690.30280906926 1713.14620492208 697.00280906926 1715.04620492208 703.90280906926 1715.04620492208 C 705.40280906926 1715.04620492208 707.00280906926 1714.94620492208 708.50280906926 1714.74620492208 L 726.60280906926 1712.44620492208 L 724.30280906926 1694.34620492208 C 722.00280906926 1676.04620492208 724.90280906926 1661.34620492208 729.60280906926 1649.84620492208 C 733.10280906926 1662.54620492208 740.20280906926 1675.74620492208 754.00280906926 1685.84620492208 C 773.30280906926 1700.04620492208 794.00280906926 1708.94620492208 789.60280906926 1736.84620492208 C 785.50280906926 1762.74620492208 764.20280906926 1779.74620492208 738.30280906926 1779.74620492208 Z"/><path fill="#ffffff" transform="matrix(0.2877932134747274 0 0 0.2877932134747274 6.908405829295144 31.286675072055754)" d="M 618.60280906926 1525.84620492208 L 659.10280906926 1579.54620492208 C 668.00280906926 1572.84620492208 677.80280906926 1567.24620492208 688.10280906926 1563.04620492208 L 662.70280906926 1500.74620492208 C 647.00280906926 1507.24620492208 632.10280906926 1515.64620492208 618.60280906926 1525.84620492208 Z"/><path fill="#ffffff" transform="matrix(0.2877932134747274 0 0 0.2877932134747274 6.908405829295144 31.286675072055754)" d="M 556.30280906926 1604.64620492208 L 617.90280906926 1631.54620492208 C 622.40280906926 1621.34620492208 628.10280906926 1611.74620492208 635.10280906926 1602.94620492208 L 582.40280906926 1561.24620492208 C 571.90280906926 1574.54620492208 563.10280906926 1589.14620492208 556.30280906926 1604.64620492208 Z"/><path fill="#ffffff" transform="matrix(0.2877932134747274 0 0 0.2877932134747274 6.908405829295144 31.286675072055754)" d="M 607.20280906926 1683.54620492208 C 607.20280906926 1676.84620492208 607.70280906926 1670.14620492208 608.70280906926 1663.64620492208 L 542.20280906926 1653.44620492208 C 540.70280906926 1663.34620492208 539.90280906926 1673.54620492208 539.90280906926 1683.54620492208 L 539.90280906926 1700.54620492208 L 607.20280906926 1700.54620492208 L 607.20280906926 1683.54620492208 Z"/><path fill="#ffffff" transform="matrix(0.2877932134747274 0 0 0.2877932134747274 6.908405829295144 31.286675072055754)" d="M 891.70280906926 1560.94620492208 L 839.00280906926 1602.74620492208 C 846.00280906926 1611.54620492208 851.80280906926 1621.14620492208 856.20280906926 1631.34620492208 L 917.80280906926 1604.34620492208 C 911.00280906926 1588.84620492208 902.20280906926 1574.24620492208 891.70280906926 1560.94620492208 Z"/><path fill="#ffffff" transform="matrix(0.2877932134747274 0 0 0.2877932134747274 6.908405829295144 31.286675072055754)" d="M 867.10280906926 1700.14620492208 L 934.40280906926 1700.14620492208 L 934.40280906926 1683.44620492208 C 934.40280906926 1673.24620492208 933.60280906926 1662.94620492208 932.00280906926 1652.94620492208 L 865.50280906926 1663.34620492208 C 866.50280906926 1669.94620492208 867.10280906926 1676.74620492208 867.10280906926 1683.54620492208 L 867.10280906926 1700.14620492208 Z"/><path fill="#ffffff" transform="matrix(0.2877932134747274 0 0 0.2877932134747274 6.908405829295144 31.286675072055754)" d="M 811.30280906926 1500.74620492208 L 786.00280906926 1563.04620492208 C 796.30280906926 1567.24620492208 806.10280906926 1572.74620492208 815.00280906926 1579.44620492208 L 855.40280906926 1525.64620492208 C 841.80280906926 1515.44620492208 827.00280906926 1507.04620492208 811.30280906926 1500.74620492208 Z"/><path fill="#ffffff" transform="matrix(0.2877932134747274 0 0 0.2877932134747274 6.908405829295144 31.286675072055754)" d="M 737.30280906926 1448.34620492208 C 724.90280906926 1448.44620492208 713.70280906926 1449.14620492208 703.00280906926 1450.54620492208 L 691.90280906926 1451.94620492208 L 705.90280906926 1560.44620492208 L 717.00280906926 1559.04620492208 C 723.70280906926 1558.14620492208 730.50280906926 1557.74620492208 737.40280906926 1557.74620492208 C 744.10280906926 1557.74620492208 750.90280906926 1558.14620492208 757.40280906926 1559.04620492208 L 768.50280906926 1560.44620492208 L 782.30280906926 1451.84620492208 L 771.20280906926 1450.44620492208 C 760.10280906926 1449.04620492208 748.70280906926 1448.34620492208 737.30280906926 1448.34620492208 Z"/><path fill="#ffffff" transform="matrix(0.2877932134747274 0 0 0.2877932134747274 6.908405829295144 31.286675072055754)" d="M 606.60280906926 1763.44620492208 C 606.60280906926 1756.74620492208 607.00280906926 1749.94620492208 607.90280906926 1743.44620492208 L 609.30280906926 1732.34620492208 L 500.70280906926 1718.44620492208 L 499.30280906926 1729.64620492208 C 497.90280906926 1740.74620492208 497.20280906926 1752.14620492208 497.20280906926 1763.54620492208 C 497.30280906926 1775.94620492208 498.00280906926 1787.14620492208 499.40280906926 1797.84620492208 L 500.80280906926 1808.94620492208 L 609.30280906926 1794.94620492208 L 607.90280906926 1783.84620492208 C 607.00280906926 1777.14620492208 606.60280906926 1770.34620492208 606.60280906926 1763.44620492208 Z"/><path fill="#ffffff" transform="matrix(0.2877932134747274 0 0 0.2877932134747274 6.908405829295144 31.286675072055754)" d="M 975.60280906926 1729.64620492208 L 974.20280906926 1718.54620492208 L 865.70280906926 1732.54620492208 L 867.10280906926 1743.64620492208 C 868.00280906926 1750.34620492208 868.40280906926 1757.14620492208 868.40280906926 1764.04620492208 C 868.40280906926 1770.74620492208 868.00280906926 1777.54620492208 867.10280906926 1784.04620492208 L 865.70280906926 1795.14620492208 L 974.30280906926 1808.94620492208 L 975.70280906926 1797.84620492208 C 977.10280906926 1786.74620492208 977.80280906926 1775.34620492208 977.80280906926 1763.94620492208 C 977.70280906926 1751.54620492208 977.00280906926 1740.34620492208 975.60280906926 1729.64620492208 Z"/><g opacity="0.38" transform="matrix(0.2877932134747274 0 0 0.2877932134747274 6.908405829295144 31.286675072055754)"><path d="M 618.60280906926 1525.84620492208 L 659.10280906926 1579.54620492208 C 668.00280906926 1572.84620492208 677.80280906926 1567.24620492208 688.10280906926 1563.04620492208 L 662.70280906926 1500.74620492208 C 647.00280906926 1507.24620492208 632.10280906926 1515.64620492208 618.60280906926 1525.84620492208 Z"/><path d="M 556.30280906926 1604.64620492208 L 617.90280906926 1631.54620492208 C 622.40280906926 1621.34620492208 628.10280906926 1611.74620492208 635.10280906926 1602.94620492208 L 582.40280906926 1561.24620492208 C 571.90280906926 1574.54620492208 563.10280906926 1589.14620492208 556.30280906926 1604.64620492208 Z"/><path d="M 607.20280906926 1683.54620492208 C 607.20280906926 1676.84620492208 607.70280906926 1670.14620492208 608.70280906926 1663.64620492208 L 542.20280906926 1653.44620492208 C 540.70280906926 1663.34620492208 539.90280906926 1673.54620492208 539.90280906926 1683.54620492208 L 539.90280906926 1700.54620492208 L 607.20280906926 1700.54620492208 L 607.20280906926 1683.54620492208 Z"/><path d="M 891.70280906926 1560.94620492208 L 839.00280906926 1602.74620492208 C 846.00280906926 1611.54620492208 851.80280906926 1621.14620492208 856.20280906926 1631.34620492208 L 917.80280906926 1604.34620492208 C 911.00280906926 1588.84620492208 902.20280906926 1574.24620492208 891.70280906926 1560.94620492208 Z"/><path d="M 867.10280906926 1700.14620492208 L 934.40280906926 1700.14620492208 L 934.40280906926 1683.44620492208 C 934.40280906926 1673.24620492208 933.60280906926 1662.94620492208 932.00280906926 1652.94620492208 L 865.50280906926 1663.34620492208 C 866.50280906926 1669.94620492208 867.10280906926 1676.74620492208 867.10280906926 1683.54620492208 L 867.10280906926 1700.14620492208 Z"/><path d="M 811.30280906926 1500.74620492208 L 786.00280906926 1563.04620492208 C 796.30280906926 1567.24620492208 806.10280906926 1572.74620492208 815.00280906926 1579.44620492208 L 855.40280906926 1525.64620492208 C 841.80280906926 1515.44620492208 827.00280906926 1507.04620492208 811.30280906926 1500.74620492208 Z"/><path d="M 737.30280906926 1448.34620492208 C 724.90280906926 1448.44620492208 713.70280906926 1449.14620492208 703.00280906926 1450.54620492208 L 691.90280906926 1451.94620492208 L 705.90280906926 1560.44620492208 L 717.00280906926 1559.04620492208 C 723.70280906926 1558.14620492208 730.50280906926 1557.74620492208 737.40280906926 1557.74620492208 C 744.10280906926 1557.74620492208 750.90280906926 1558.14620492208 757.40280906926 1559.04620492208 L 768.50280906926 1560.44620492208 L 782.30280906926 1451.84620492208 L 771.20280906926 1450.44620492208 C 760.10280906926 1449.04620492208 748.70280906926 1448.34620492208 737.30280906926 1448.34620492208 Z"/><path d="M 606.60280906926 1763.44620492208 C 606.60280906926 1756.74620492208 607.00280906926 1749.94620492208 607.90280906926 1743.44620492208 L 609.30280906926 1732.34620492208 L 500.70280906926 1718.44620492208 L 499.30280906926 1729.64620492208 C 497.90280906926 1740.74620492208 497.20280906926 1752.14620492208 497.20280906926 1763.54620492208 C 497.30280906926 1775.94620492208 498.00280906926 1787.14620492208 499.40280906926 1797.84620492208 L 500.80280906926 1808.94620492208 L 609.30280906926 1794.94620492208 L 607.90280906926 1783.84620492208 C 607.00280906926 1777.14620492208 606.60280906926 1770.34620492208 606.60280906926 1763.44620492208 Z"/><path d="M 975.60280906926 1729.64620492208 L 974.20280906926 1718.54620492208 L 865.70280906926 1732.54620492208 L 867.10280906926 1743.64620492208 C 868.00280906926 1750.34620492208 868.40280906926 1757.14620492208 868.40280906926 1764.04620492208 C 868.40280906926 1770.74620492208 868.00280906926 1777.54620492208 867.10280906926 1784.04620492208 L 865.70280906926 1795.14620492208 L 974.30280906926 1808.94620492208 L 975.70280906926 1797.84620492208 C 977.10280906926 1786.74620492208 977.80280906926 1775.34620492208 977.80280906926 1763.94620492208 C 977.70280906926 1751.54620492208 977.00280906926 1740.34620492208 975.60280906926 1729.64620492208 Z"/></g><path fill="#ffffff" transform="matrix(0.2877932134747274 0 0 0.2877932134747274 6.908405829295144 31.286675072055754)" d="M 645.10280906926 1676.94620492208 L 639.30280906926 1666.14620492208 L 628.50280906926 1660.34620492208 L 639.30280906926 1654.44620492208 L 645.10280906926 1643.64620492208 L 651.00280906926 1654.44620492208 L 661.80280906926 1660.34620492208 L 651.00280906926 1666.14620492208 Z"/><path fill="#ffffff" transform="matrix(0.2877932134747274 0 0 0.2877932134747274 6.908405829295144 31.286675072055754)" d="M 833.20280906926 1687.44620492208 L 829.40280906926 1680.44620492208 L 822.30280906926 1676.54620492208 L 829.40280906926 1672.74620492208 L 833.20280906926 1665.74620492208 L 837.00280906926 1672.74620492208 L 844.10280906926 1676.54620492208 L 837.00280906926 1680.44620492208 Z"/><path fill="#ffffff" transform="matrix(0.2877932134747274 0 0 0.2877932134747274 6.908405829295144 31.286675072055754)" d="M 645.10280906926 1791.44620492208 L 640.10280906926 1782.34620492208 L 631.00280906926 1777.34620492208 L 640.10280906926 1772.34620492208 L 645.10280906926 1763.14620492208 L 650.20280906926 1772.34620492208 L 659.30280906926 1777.34620492208 L 650.20280906926 1782.34620492208 Z"/><path fill="#ffffff" transform="matrix(0.2877932134747274 0 0 0.2877932134747274 6.908405829295144 31.286675072055754)" d="M 713.30280906926 1602.94620492208 L 709.10280906926 1595.44620492208 L 701.60280906926 1591.34620492208 L 709.10280906926 1587.14620492208 L 713.30280906926 1579.64620492208 L 717.40280906926 1587.14620492208 L 725.00280906926 1591.34620492208 L 717.40280906926 1595.44620492208 Z"/><path fill="#ffffff" transform="matrix(0.2877932134747274 0 0 0.2877932134747274 6.908405829295144 31.286675072055754)" d="M 832.40280906926 1791.44620492208 L 828.20280906926 1783.94620492208 L 820.70280906926 1779.74620492208 L 828.20280906926 1775.64620492208 L 832.40280906926 1768.04620492208 L 836.50280906926 1775.64620492208 L 844.10280906926 1779.74620492208 L 836.50280906926 1783.94620492208 Z"/><path id="text" fill="#ffffff" transform="matrix(0.8189570137230643 0 0 0.8189570137230643 176.34277941466226 45.21023610443106)" d="M 227.66746302068 585.8560041257 L 208.27546302068 585.8560041257 L 207.89146302068 575.5840041257 L 207.89146302068 575.2000041257 L 198.38746302068 575.0080041257 L 190.41946302068 575.3920041257 L 187.44346302068 585.8560041257 L 168.72346302068 585.8560041257 L 195.21946302068 523.7440041257 L 218.35546302068 523.7440041257 L 227.66746302068 585.8560041257 Z M 206.64346302068 561.2800041257 L 204.91546302068 540.8320041257 L 203.76346302068 540.8320041257 L 195.79546302068 561.2800041257 L 201.26746302068 561.3760041257 L 206.64346302068 561.2800041257 Z M 288.62746302068 585.8560041257 L 269.42746302068 585.8560041257 L 267.31546302068 571.3600041257 L 266.25946302068 571.3600041257 L 261.26746302068 585.8560041257 L 242.06746302068 585.8560041257 L 236.69146302068 536.6080041257 L 254.16346302068 536.6080041257 L 253.87546302068 545.1520041257 L 254.64346302068 567.9040041257 L 255.69946302068 567.9040041257 L 263.09146302068 547.7440041257 L 262.03546302068 536.6080041257 L 280.27546302068 536.6080041257 L 280.17946302068 547.0720041257 L 281.61946302068 567.9040041257 L 282.67546302068 567.9040041257 L 290.16346302068 546.2080041257 L 292.75546302068 536.6080041257 L 309.26746302068 536.6080041257 L 288.62746302068 585.8560041257 Z M 330.57946302068 550.1440041257 L 329.90746302068 554.4640041257 L 337.58746302068 554.4640041257 L 346.03546302068 554.1760041257 L 346.80346302068 555.4240041257 L 344.21146302068 568.3840041257 L 334.89946302068 568.0960041257 L 327.89146302068 568.0960041257 L 327.60346302068 569.7280041257 L 327.41146302068 572.3200041257 L 334.99546302068 572.3200041257 L 348.43546302068 571.8400041257 L 349.29946302068 572.9920041257 L 346.61146302068 585.8560041257 L 308.59546302068 585.8560041257 L 311.28346302068 571.5520041257 L 314.64346302068 536.6080041257 L 353.33146302068 536.6080041257 L 354.19546302068 537.8560041257 L 351.50746302068 550.7200041257 L 338.73946302068 550.1440041257 L 330.57946302068 550.1440041257 Z M 395.85946302068 538.2400041257 L 391.73146302068 552.9280041257 L 389.23546302068 553.6000041257 C 387.18746302068 552.1280041257 384.99546302068 550.9440041257 382.65946302068 550.0480041257 C 380.32346302068 549.1520041257 378.48346302068 548.7040041257 377.13946302068 548.7040041257 C 375.73146302068 548.7040041257 375.02746302068 549.2160041257 375.02746302068 550.2400041257 C 375.02746302068 551.0080041257 375.45946302068 551.6480041257 376.32346302068 552.1600041257 C 377.18746302068 552.6720041257 378.57946302068 553.2800041257 380.49946302068 553.9840041257 C 383.05946302068 554.9440041257 385.21946302068 555.9360041257 386.97946302068 556.9600041257 C 388.73946302068 557.9840041257 390.27546302068 559.4080041257 391.58746302068 561.2320041257 C 392.89946302068 563.0560041257 393.55546302068 565.3760041257 393.55546302068 568.1920041257 C 393.55546302068 571.3920041257 392.72346302068 574.4160041257 391.05946302068 577.2640041257 C 389.39546302068 580.1120041257 386.75546302068 582.4480041257 383.13946302068 584.2720041257 C 379.52346302068 586.0960041257 374.99546302068 587.0080041257 369.55546302068 587.0080041257 C 363.73146302068 587.0080041257 358.03546302068 586.1120041257 352.46746302068 584.3200041257 L 356.69146302068 568.9600041257 L 358.41946302068 567.7120041257 C 360.72346302068 569.6960041257 363.28346302068 571.3280041257 366.09946302068 572.6080041257 C 368.91546302068 573.8880041257 371.28346302068 574.5280041257 373.20346302068 574.5280041257 C 374.86746302068 574.5280041257 375.69946302068 573.9200041257 375.69946302068 572.7040041257 C 375.69946302068 572.0000041257 375.26746302068 571.3920041257 374.40346302068 570.8800041257 C 373.53946302068 570.3680041257 372.17946302068 569.7600041257 370.32346302068 569.0560041257 C 367.69946302068 568.0960041257 365.49146302068 567.1040041257 363.69946302068 566.0800041257 C 361.90746302068 565.0560041257 360.35546302068 563.6160041257 359.04346302068 561.7600041257 C 357.73146302068 559.9040041257 357.07546302068 557.5360041257 357.07546302068 554.6560041257 C 357.07546302068 551.1360041257 358.03546302068 547.9360041257 359.95546302068 545.0560041257 C 361.87546302068 542.1760041257 364.64346302068 539.8880041257 368.25946302068 538.1920041257 C 371.87546302068 536.4960041257 376.14746302068 535.6480041257 381.07546302068 535.6480041257 C 386.19546302068 535.6480041257 391.12346302068 536.5120041257 395.85946302068 538.2400041257 Z M 444.57946302068 541.1680041257 C 448.51546302068 544.8480041257 450.48346302068 550.4000041257 450.48346302068 557.8240041257 C 450.48346302068 563.4560041257 449.34746302068 568.4640041257 447.07546302068 572.8480041257 C 444.80346302068 577.2320041257 441.49146302068 580.6720041257 437.13946302068 583.1680041257 C 432.78746302068 585.6640041257 427.60346302068 586.9120041257 421.58746302068 586.9120041257 C 414.35546302068 586.9120041257 408.77146302068 585.0560041257 404.83546302068 581.3440041257 C 400.89946302068 577.6320041257 398.93146302068 572.0320041257 398.93146302068 564.5440041257 C 398.93146302068 558.9120041257 400.06746302068 553.9200041257 402.33946302068 549.5680041257 C 404.61146302068 545.2160041257 407.92346302068 541.8080041257 412.27546302068 539.3440041257 C 416.62746302068 536.8800041257 421.81146302068 535.6480041257 427.82746302068 535.6480041257 C 435.05946302068 535.6480041257 440.64346302068 537.4880041257 444.57946302068 541.1680041257 Z M 421.15546302068 550.6720041257 C 420.03546302068 551.3440041257 419.13946302068 552.7520041257 418.46746302068 554.8960041257 C 417.79546302068 557.0400041257 417.45946302068 560.1920041257 417.45946302068 564.3520041257 C 417.45946302068 567.0400041257 417.63546302068 569.0400041257 417.98746302068 570.3520041257 C 418.33946302068 571.6640041257 418.96346302068 572.5760041257 419.85946302068 573.0880041257 C 420.75546302068 573.6000041257 422.09946302068 573.8560041257 423.89146302068 573.8560041257 C 425.68346302068 573.8560041257 427.13946302068 573.5200041257 428.25946302068 572.8480041257 C 429.37946302068 572.1760041257 430.25946302068 570.7680041257 430.89946302068 568.6240041257 C 431.53946302068 566.4800041257 431.85946302068 563.2960041257 431.85946302068 559.0720041257 C 431.85946302068 556.4480041257 431.68346302068 554.4800041257 431.33146302068 553.1680041257 C 430.97946302068 551.8560041257 430.37146302068 550.9440041257 429.50746302068 550.4320041257 C 428.64346302068 549.9200041257 427.34746302068 549.6640041257 425.61946302068 549.6640041257 C 423.76346302068 549.6640041257 422.27546302068 550.0000041257 421.15546302068 550.6720041257 Z M 512.69146302068 585.8560041257 L 497.04346302068 585.8560041257 L 498.77146302068 570.9760041257 L 499.15546302068 562.0480041257 L 498.19546302068 562.0480041257 L 488.40346302068 581.6320041257 L 475.05946302068 581.6320041257 L 471.69946302068 562.0480041257 L 470.64346302068 562.0480041257 L 468.91546302068 569.2480041257 L 466.22746302068 585.8560041257 L 451.34746302068 585.8560041257 L 462.38746302068 536.6080041257 L 483.02746302068 536.6080041257 L 483.50746302068 543.5200041257 L 485.04346302068 558.5920041257 L 486.09946302068 558.5920041257 L 491.76346302068 544.2880041257 L 494.54746302068 536.6080041257 L 514.70746302068 536.6080041257 L 512.69146302068 585.8560041257 Z M 542.54746302068 550.1440041257 L 541.87546302068 554.4640041257 L 549.55546302068 554.4640041257 L 558.00346302068 554.1760041257 L 558.77146302068 555.4240041257 L 556.17946302068 568.3840041257 L 546.86746302068 568.0960041257 L 539.85946302068 568.0960041257 L 539.57146302068 569.7280041257 L 539.37946302068 572.3200041257 L 546.96346302068 572.3200041257 L 560.40346302068 571.8400041257 L 561.26746302068 572.9920041257 L 558.57946302068 585.8560041257 L 520.56346302068 585.8560041257 L 523.25146302068 571.5520041257 L 526.61146302068 536.6080041257 L 565.29946302068 536.6080041257 L 566.16346302068 537.8560041257 L 563.47546302068 550.7200041257 L 550.70746302068 550.1440041257 L 542.54746302068 550.1440041257 Z M 618.43546302068 528.1120041257 C 622.05146302068 531.0880041257 623.85946302068 535.2640041257 623.85946302068 540.6400041257 C 623.85946302068 546.0160041257 622.61146302068 550.8000041257 620.11546302068 554.9920041257 C 617.61946302068 559.1840041257 614.08346302068 562.4480041257 609.50746302068 564.7840041257 C 604.93146302068 567.1200041257 599.66746302068 568.2880041257 593.71546302068 568.2880041257 L 588.14746302068 568.2880041257 L 586.61146302068 585.8560041257 L 567.41146302068 585.8560041257 L 570.57946302068 567.6160041257 L 574.99546302068 523.7440041257 L 603.41146302068 523.6480041257 C 609.81146302068 523.6480041257 614.81946302068 525.1360041257 618.43546302068 528.1120041257 Z M 602.01946302068 550.4800041257 C 603.01146302068 548.7200041257 603.50746302068 546.4960041257 603.50746302068 543.8080041257 C 603.50746302068 541.5680041257 602.89946302068 539.8880041257 601.68346302068 538.7680041257 C 600.46746302068 537.6480041257 598.57946302068 537.0240041257 596.01946302068 536.8960041257 L 592.56346302068 537.1840041257 L 589.97146302068 554.4640041257 L 597.07546302068 554.8480041257 C 599.37946302068 553.6960041257 601.02746302068 552.2400041257 602.01946302068 550.4800041257 Z M 642.57946302068 569.7280041257 L 641.42746302068 585.8560041257 L 623.66746302068 585.8560041257 L 626.25946302068 571.5520041257 L 629.71546302068 536.6080041257 L 647.76346302068 536.6080041257 L 642.57946302068 569.7280041257 Z M 696.91546302068 549.1840041257 L 673.10746302068 572.8960041257 L 684.43546302068 572.8960041257 L 694.80346302068 572.1280041257 L 695.18746302068 572.8000041257 L 692.21146302068 586.3360041257 L 676.94746302068 585.8560041257 L 659.18746302068 585.8560041257 L 650.54746302068 586.3360041257 L 652.08346302068 573.8560041257 L 676.27546302068 549.6640041257 L 665.23546302068 549.6640041257 L 654.86746302068 550.5280041257 L 654.38746302068 549.8560041257 L 657.26746302068 536.4160041257 L 670.13146302068 536.6080041257 L 698.35546302068 536.6080041257 L 696.91546302068 549.1840041257 Z M 744.81946302068 549.1840041257 L 721.01146302068 572.8960041257 L 732.33946302068 572.8960041257 L 742.70746302068 572.1280041257 L 743.09146302068 572.8000041257 L 740.11546302068 586.3360041257 L 724.85146302068 585.8560041257 L 707.09146302068 585.8560041257 L 698.45146302068 586.3360041257 L 699.98746302068 573.8560041257 L 724.17946302068 549.6640041257 L 713.13946302068 549.6640041257 L 702.77146302068 550.5280041257 L 702.29146302068 549.8560041257 L 705.17146302068 536.4160041257 L 718.03546302068 536.6080041257 L 746.25946302068 536.6080041257 L 744.81946302068 549.1840041257 Z M 777.07546302068 585.8560041257 L 776.88346302068 578.7520041257 L 769.29946302068 578.5600041257 L 763.05946302068 578.8480041257 L 761.13946302068 585.8560041257 L 744.14746302068 585.8560041257 L 765.65146302068 536.6080041257 L 786.77146302068 536.6080041257 L 794.73946302068 585.8560041257 L 777.07546302068 585.8560041257 Z M 771.79546302068 566.1760041257 L 775.82746302068 566.0800041257 L 774.48346302068 552.0640041257 L 773.42746302068 552.0640041257 L 767.85946302068 566.0800041257 L 771.79546302068 566.1760041257 Z M 822.57946302068 537.9520041257 L 815.85946302068 565.4080041257 L 805.39546302068 566.7520041257 L 803.85946302068 565.1200041257 L 805.68346302068 538.7200041257 L 807.41146302068 536.7040041257 L 820.75546302068 535.9360041257 L 822.57946302068 537.9520041257 Z M 814.46746302068 571.7440041257 C 815.84346302068 573.1520041257 816.53146302068 575.1680041257 816.53146302068 577.7920041257 C 816.53146302068 580.5440041257 815.76346302068 582.7200041257 814.22746302068 584.3200041257 C 812.69146302068 585.9200041257 810.57946302068 586.7200041257 807.89146302068 586.7200041257 C 805.26746302068 586.7200041257 803.25146302068 586.0160041257 801.84346302068 584.6080041257 C 800.43546302068 583.2000041257 799.73146302068 581.1840041257 799.73146302068 578.5600041257 C 799.73146302068 575.8080041257 800.53146302068 573.6320041257 802.13146302068 572.0320041257 C 803.73146302068 570.4320041257 805.87546302068 569.6320041257 808.56346302068 569.6320041257 C 811.12346302068 569.6320041257 813.09146302068 570.3360041257 814.46746302068 571.7440041257 Z"/></svg>